<svg width="48" height="110" viewBox="0 0 48 110" fill="none" xmlns="http://www.w3.org/2000/svg">
<path d="M16.952 20.6V20.86C14.872 20.86 13.312 21.588 13.312 27.256V45.82C13 54.4 6.448 58.248 0.52 57.364V57C4.264 57 8.112 52.32 8.112 45.196V27.256C8.112 21.588 6.552 20.86 4.472 20.86V20.6H16.952Z" fill="#394F49"/>
<path d="M47.16 57.6V63.892H46.9C46.9 60.148 45.028 57.86 39.36 57.86H38.58C36.5 57.86 34.94 58.588 34.94 64.256V87.344C34.94 93.012 36.5 93.74 38.58 93.74V94H26.1V93.74C28.18 93.74 29.74 93.012 29.74 87.344V64.256C29.74 58.588 28.18 57.86 26.1 57.86H25.32C19.652 57.86 17.78 60.148 17.78 63.892H17.52V57.6H47.16Z" fill="#394F49"/>
</svg>
